<?xml version="1.0" encoding="UTF-8"?>
<svg width="17px" height="17px" viewBox="0 0 17 17" version="1.1" xmlns="http://www.w3.org/2000/svg" xmlns:xlink="http://www.w3.org/1999/xlink">
    <!-- Generator: Sketch 53.2 (72643) - https://sketchapp.com -->
    <title>help</title>
    <desc>Created with Sketch.</desc>
    <defs>
        <polygon id="path-1" points="0.000104615385 0.20536 16.5329969 0.20536 16.5329969 16.7384615 0.000104615385 16.7384615"></polygon>
    </defs>
    <g id="icons" stroke="none" stroke-width="1" fill="none" fill-rule="evenodd">
        <g id="Desktop" transform="translate(-576.000000, -503.000000)">
            <g id="help" transform="translate(576.000000, 503.000000)">
                <g id="Group-3" transform="translate(0.000000, 0.056178)">
                    <mask id="mask-2" fill="white">
                        <use xlink:href="#path-1"></use>
                    </mask>
                    <g id="Clip-2"></g>
                    <path d="M8.26655077,0.989975385 C4.14104308,0.989975385 0.78472,4.34629846 0.78472,8.47180615 C0.78472,12.5975754 4.14104308,15.9538985 8.26655077,15.9538985 C12.3920585,15.9538985 15.7483815,12.5975754 15.7483815,8.47180615 C15.7483815,4.34629846 12.3920585,0.989975385 8.26655077,0.989975385 M8.26655077,16.7385138 C3.70819692,16.7385138 0.000104615385,13.03016 0.000104615385,8.47180615 C0.000104615385,3.91371385 3.70819692,0.20536 8.26655077,0.20536 C12.8249046,0.20536 16.5329969,3.91371385 16.5329969,8.47180615 C16.5329969,13.03016 12.8249046,16.7385138 8.26655077,16.7385138" id="Fill-1" fill="#262625" mask="url(#mask-2)"></path>
                </g>
                <path d="M8.36975385,4.43822923 C7.65732308,4.43822923 7.06284615,4.68695231 6.58710769,5.09102923 C6.11110769,5.49536769 5.83283077,5.82333692 5.75253846,6.81273692 L7.20538462,6.81273692 C7.23703077,6.31790615 7.35524615,6.20361385 7.55950769,6.01556769 C7.76403077,5.82752154 8.01746154,5.70982923 8.32189231,5.70982923 C8.62606154,5.70982923 8.874,5.79587538 9.06596923,5.99229077 C9.2582,6.18818308 9.35444615,6.42879846 9.35444615,6.72459846 C9.35444615,7.02039846 9.26186154,7.26598308 9.07826154,7.46606 L8.20158462,8.34116769 C7.94553846,8.59747538 7.89218462,8.80304462 7.81581538,8.95892154 C7.73970769,9.11479846 7.81424615,9.35175231 7.81424615,9.67187538 L7.81424615,10.2752446 L8.80364615,10.2752446 L8.80364615,9.86384462 C8.80364615,9.54424462 8.94670769,9.29578308 9.09107692,9.11976769 C9.14652308,9.05595231 9.25584615,8.97775231 9.34869231,8.88595231 C9.44101538,8.79336769 9.57047692,8.68535231 9.70255385,8.56138308 C9.83463077,8.43767538 9.94996923,8.33515231 10.03,8.25512154 C10.1095077,8.17535231 10.2298154,8.03909077 10.3820308,7.84686 C10.6459231,7.52699846 10.7806154,7.12658308 10.7806154,6.64639846 C10.7806154,5.94992154 10.5577846,5.40827538 10.1095077,5.01962923 C9.66070769,4.63202923 9.08218462,4.43822923 8.36975385,4.43822923" id="Fill-4" fill="#262625"></path>
                <path d="M8.27934,10.8418415 C8.02695538,10.8418415 7.81144769,10.9305031 7.63098615,11.1059954 C7.45078615,11.2822723 7.36055538,11.4917646 7.36055538,11.7363031 C7.36055538,11.9800569 7.45287846,12.1882415 7.63674,12.3605954 C7.82086308,12.5326877 8.03898615,12.6182108 8.29084769,12.6182108 C8.54297077,12.6182108 8.75926308,12.5300723 8.93920154,12.35458 C9.11887846,12.1783031 9.20937077,11.9682877 9.20937077,11.7242723 C9.20937077,11.4802569 9.11678615,11.2723338 8.93292462,11.0994569 C8.74984769,10.9273646 8.53172462,10.8418415 8.27934,10.8418415" id="Fill-6" fill="#262625"></path>
            </g>
        </g>
    </g>
</svg>